<svg width="210" height="56" viewBox="0 0 210 56" fill="none" xmlns="http://www.w3.org/2000/svg">
<path d="M26.1337 5.65912C25.1086 4.78029 23.4438 4.78029 22.4187 5.65912L12.5779 14.0958C11.5528 14.9746 11.5528 16.4018 12.5779 17.2806L13.89 18.4055C14.9151 19.2843 16.5798 19.2843 17.6049 18.4055L17.9329 18.1243L26.6913 25.6259L26.3633 25.9071C25.3382 26.786 25.3382 28.2132 26.3633 29.092L27.6754 30.2169C28.7005 31.0957 30.3652 31.0957 31.3903 30.2169L41.2312 21.7802C42.2563 20.9014 42.2563 19.4742 41.2312 18.5954L39.9191 17.4705C38.894 16.5916 37.2292 16.5916 36.2041 17.4705L35.8761 17.7517L27.1177 10.243L27.4458 9.96182C28.4709 9.083 28.4709 7.6558 27.4458 6.77697L26.1337 5.65208V5.65912ZM13.6686 25.9071C12.6435 25.0283 10.9787 25.0283 9.95363 25.9071L0.768818 33.7814C-0.256272 34.6602 -0.256272 36.0874 0.768818 36.9662L4.70516 40.3409C5.73025 41.2197 7.395 41.2197 8.42009 40.3409L17.6049 32.4667C18.63 31.5878 18.63 30.1606 17.6049 29.2818L17.4901 29.1834L22.3121 25.0564L18.5972 21.8716L13.7834 25.9985L13.6686 25.9001V25.9071Z" fill="#D1B06B"/>
<path d="M57.352 24.632C57.752 25.32 57.952 25.984 57.952 26.624C57.952 26.768 57.936 26.896 57.904 27.008C57.888 27.136 57.864 27.264 57.832 27.392C57.56 27.36 57.272 27.336 56.968 27.32C56.68 27.304 56.376 27.296 56.056 27.296C55.672 27.296 55.28 27.304 54.88 27.32C54.496 27.352 54.064 27.392 53.584 27.44C53.104 27.488 52.568 27.552 51.976 27.632C51.384 27.712 50.696 27.816 49.912 27.944C49.544 27.816 49.176 27.56 48.808 27.176C48.44 26.808 48.096 26.36 47.776 25.832C47.936 25.48 48.136 25.048 48.376 24.536C48.616 24.008 48.896 23.376 49.216 22.64C49.536 21.888 49.888 21.016 50.272 20.024C50.672 19.016 51.096 17.856 51.544 16.544C51.832 15.68 52.08 14.92 52.288 14.264C52.496 13.608 52.68 12.976 52.84 12.368C53.016 11.744 53.184 11.096 53.344 10.424C53.504 9.752 53.68 8.976 53.872 8.096C54.512 8.224 55.064 8.464 55.528 8.816C56.008 9.152 56.464 9.64 56.896 10.28C56.768 10.488 56.6 10.824 56.392 11.288C56.184 11.752 55.936 12.32 55.648 12.992C55.376 13.648 55.072 14.4 54.736 15.248C54.4 16.08 54.048 16.976 53.68 17.936C53.328 18.88 52.984 19.768 52.648 20.6C52.312 21.432 52.008 22.184 51.736 22.856C51.48 23.528 51.272 24.104 51.112 24.584C50.952 25.064 50.872 25.424 50.872 25.664C51.128 25.648 51.36 25.632 51.568 25.616C51.776 25.6 51.992 25.576 52.216 25.544C52.44 25.496 52.68 25.448 52.936 25.4C53.208 25.336 53.528 25.256 53.896 25.16C54.216 25.08 54.512 25.016 54.784 24.968C55.056 24.904 55.32 24.856 55.576 24.824C55.848 24.776 56.12 24.744 56.392 24.728C56.68 24.696 57 24.664 57.352 24.632ZM67.8419 16.064C67.7779 17.056 67.6019 17.912 67.3139 18.632C67.0259 19.336 66.6099 19.96 66.0659 20.504C65.5379 21.032 64.8899 21.512 64.1219 21.944C63.3539 22.376 62.4579 22.792 61.4339 23.192C61.4339 23.288 61.4259 23.392 61.4099 23.504C61.4099 23.6 61.4099 23.704 61.4099 23.816C61.4099 24.024 61.4259 24.24 61.4579 24.464C61.4899 24.688 61.5459 24.896 61.6259 25.088C61.7059 25.28 61.8179 25.44 61.9619 25.568C62.1059 25.68 62.2899 25.736 62.5139 25.736C62.9459 25.736 63.3699 25.64 63.7859 25.448C64.2019 25.256 64.5939 25.024 64.9619 24.752C65.3459 24.464 65.6979 24.16 66.0179 23.84C66.3539 23.504 66.6499 23.2 66.9059 22.928C67.0659 23.072 67.2019 23.208 67.3139 23.336C66.5939 24.296 65.8019 25.096 64.9379 25.736C64.0899 26.36 63.2819 26.76 62.5139 26.936C61.4099 26.808 60.5459 26.408 59.9219 25.736C59.3139 25.048 59.0099 24.224 59.0099 23.264C59.0099 22.608 59.0979 21.944 59.2739 21.272C59.4659 20.584 59.7219 19.928 60.0419 19.304C60.3779 18.664 60.7619 18.064 61.1939 17.504C61.6419 16.944 62.1139 16.456 62.6099 16.04C63.1219 15.624 63.6419 15.296 64.1699 15.056C64.7139 14.816 65.2499 14.696 65.7779 14.696C66.5139 14.792 67.2019 15.248 67.8419 16.064ZM66.1859 16.856C65.7539 16.92 65.3059 17.096 64.8419 17.384C64.3779 17.672 63.9379 18.056 63.5219 18.536C63.1219 19.016 62.7539 19.576 62.4179 20.216C62.0819 20.856 61.8179 21.544 61.6259 22.28C62.9059 21.64 63.9699 20.856 64.8179 19.928C65.6659 18.984 66.1219 17.96 66.1859 16.856ZM64.105 33.152C64.105 33.056 64.137 32.968 64.201 32.888C64.265 32.808 64.337 32.728 64.417 32.648C64.609 32.824 64.777 32.96 64.921 33.056C65.049 33.152 65.177 33.232 65.305 33.296C65.417 33.36 65.537 33.4 65.665 33.416C65.793 33.432 65.945 33.44 66.121 33.44C66.953 33.44 67.745 33.216 68.497 32.768C69.249 32.336 69.953 31.704 70.609 30.872C71.281 30.04 71.889 29.024 72.433 27.824C72.977 26.624 73.457 25.264 73.873 23.744C73.681 23.936 73.441 24.152 73.153 24.392C72.881 24.616 72.593 24.832 72.289 25.04C71.985 25.248 71.681 25.44 71.377 25.616C71.089 25.792 70.841 25.92 70.633 26C70.361 25.952 70.105 25.84 69.865 25.664C69.641 25.472 69.441 25.24 69.265 24.968C69.089 24.696 68.953 24.392 68.857 24.056C68.761 23.704 68.713 23.336 68.713 22.952C68.713 22.328 68.825 21.688 69.049 21.032C69.289 20.376 69.601 19.736 69.985 19.112C70.369 18.472 70.817 17.872 71.329 17.312C71.857 16.752 72.409 16.264 72.985 15.848C73.577 15.432 74.169 15.104 74.761 14.864C75.369 14.608 75.961 14.48 76.537 14.48C77.097 14.48 77.513 14.6 77.785 14.84C78.073 15.064 78.281 15.456 78.409 16.016C78.233 15.92 78.009 15.872 77.737 15.872C77.353 15.872 76.905 16.024 76.393 16.328C75.897 16.632 75.385 17.032 74.857 17.528C74.345 18.008 73.833 18.568 73.321 19.208C72.809 19.832 72.353 20.472 71.953 21.128C71.569 21.784 71.249 22.424 70.993 23.048C70.753 23.672 70.633 24.232 70.633 24.728C70.633 24.84 70.641 24.912 70.657 24.944C70.673 24.96 70.697 24.968 70.729 24.968C70.873 24.968 71.065 24.888 71.305 24.728C71.561 24.568 71.841 24.368 72.145 24.128C72.465 23.872 72.793 23.584 73.129 23.264C73.465 22.928 73.785 22.592 74.089 22.256C74.777 21.488 75.401 20.632 75.961 19.688C76.537 18.728 76.993 17.8 77.329 16.904C77.761 16.936 78.145 17.008 78.481 17.12C78.817 17.232 79.049 17.352 79.177 17.48C78.633 18.728 78.193 19.776 77.857 20.624C77.537 21.472 77.257 22.224 77.017 22.88C76.585 24.032 76.177 25.08 75.793 26.024C75.425 26.984 75.041 27.864 74.641 28.664C74.257 29.48 73.833 30.232 73.369 30.92C72.921 31.624 72.409 32.296 71.833 32.936C71.561 33.24 71.249 33.504 70.897 33.728C70.561 33.968 70.209 34.168 69.841 34.328C69.489 34.488 69.137 34.608 68.785 34.688C68.449 34.768 68.137 34.808 67.849 34.808C67.465 34.808 67.073 34.76 66.673 34.664C66.273 34.584 65.905 34.464 65.569 34.304C65.217 34.16 64.913 33.984 64.657 33.776C64.401 33.584 64.217 33.376 64.105 33.152ZM88.0377 16.304C88.1977 16.304 88.3817 16.336 88.5897 16.4C88.8137 16.448 89.0137 16.52 89.1897 16.616C89.3657 16.696 89.5097 16.784 89.6217 16.88C89.7497 16.976 89.8137 17.064 89.8137 17.144C89.4937 17.816 89.1977 18.496 88.9257 19.184C88.6537 19.856 88.4217 20.504 88.2297 21.128C88.0377 21.752 87.8857 22.336 87.7737 22.88C87.6777 23.424 87.6297 23.896 87.6297 24.296C87.6297 24.744 87.6777 25.12 87.7737 25.424C87.8697 25.712 88.0297 25.92 88.2537 26.048C88.0617 26.176 87.8137 26.28 87.5097 26.36C87.2057 26.44 86.9337 26.48 86.6937 26.48C85.8297 26.48 85.3977 25.888 85.3977 24.704C85.3977 23.792 85.7017 22.544 86.3097 20.96C85.9897 21.696 85.6217 22.392 85.2057 23.048C84.7897 23.688 84.3657 24.256 83.9337 24.752C83.5017 25.248 83.0617 25.656 82.6137 25.976C82.1817 26.28 81.7817 26.464 81.4137 26.528C80.8217 26.496 80.3417 26.216 79.9737 25.688C79.6057 25.144 79.4217 24.456 79.4217 23.624C79.4217 22.728 79.6137 21.784 79.9977 20.792C80.3817 19.8 80.8697 18.88 81.4617 18.032C82.0697 17.184 82.7257 16.48 83.4297 15.92C84.1337 15.344 84.8137 15.04 85.4697 15.008C85.6297 15.056 85.8057 15.152 85.9977 15.296C86.2057 15.44 86.3977 15.608 86.5737 15.8C86.7657 15.992 86.9257 16.192 87.0537 16.4C87.1817 16.592 87.2537 16.76 87.2697 16.904C86.6297 17 85.9657 17.312 85.2777 17.84C84.6057 18.368 83.9897 19.008 83.4297 19.76C82.8857 20.496 82.4377 21.288 82.0857 22.136C81.7337 22.984 81.5577 23.776 81.5577 24.512C81.5577 24.816 81.6697 25.008 81.8937 25.088C82.3577 24.992 82.8937 24.6 83.5017 23.912C84.1097 23.208 84.8457 22.128 85.7097 20.672C85.8697 20.384 86.0457 20.064 86.2377 19.712C86.4457 19.36 86.6537 18.992 86.8617 18.608C87.0697 18.224 87.2697 17.84 87.4617 17.456C87.6697 17.056 87.8617 16.672 88.0377 16.304ZM91.0071 24.464C91.0071 23.76 91.1751 22.776 91.5111 21.512C91.8471 20.232 92.3191 18.744 92.9271 17.048C93.9191 14.344 94.8471 12.096 95.7111 10.304C96.5911 8.496 97.4471 7.088 98.2791 6.08C98.4711 6.112 98.7031 6.192 98.9751 6.32C99.2631 6.448 99.5431 6.592 99.8151 6.752C100.087 6.896 100.327 7.048 100.535 7.208C100.759 7.368 100.903 7.496 100.967 7.592C99.7191 9.064 98.6231 10.648 97.6791 12.344C96.7351 14.04 95.8711 15.984 95.0871 18.176C94.4151 20.064 93.9031 21.768 93.5511 23.288C93.1991 24.792 93.0231 26.048 93.0231 27.056C93.0231 27.328 93.0231 27.496 93.0231 27.56C93.0231 27.624 93.0311 27.688 93.0471 27.752C92.8231 27.72 92.6311 27.664 92.4711 27.584C92.3111 27.504 92.2071 27.408 92.1591 27.296C92.1271 27.216 92.0391 27.096 91.8951 26.936C91.7511 26.792 91.6231 26.68 91.5111 26.6C91.3671 26.504 91.2471 26.256 91.1511 25.856C91.0551 25.44 91.0071 24.976 91.0071 24.464ZM119.054 12.776C119.054 13.768 118.782 14.656 118.238 15.44C117.694 16.208 116.95 16.848 116.006 17.36C116.614 17.776 117.094 18.288 117.446 18.896C117.814 19.488 117.998 20.144 117.998 20.864C117.998 21.728 117.734 22.584 117.206 23.432C116.694 24.264 116.006 25.008 115.142 25.664C114.278 26.304 113.294 26.824 112.19 27.224C111.086 27.624 109.958 27.824 108.806 27.824C107.558 27.824 106.462 27.584 105.518 27.104C104.59 26.64 103.862 25.976 103.334 25.112C103.494 24.632 103.702 24.04 103.958 23.336C104.23 22.616 104.526 21.864 104.846 21.08C105.166 20.28 105.486 19.488 105.806 18.704C106.142 17.92 106.454 17.216 106.742 16.592C107.35 15.232 107.894 14.104 108.374 13.208C108.854 12.312 109.294 11.6 109.694 11.072C108.814 11.344 108.014 11.656 107.294 12.008C106.574 12.344 106.046 12.672 105.71 12.992C105.566 12.896 105.414 12.752 105.254 12.56C105.11 12.368 104.966 12.16 104.822 11.936C104.694 11.696 104.582 11.456 104.486 11.216C104.406 10.976 104.358 10.76 104.342 10.568C104.758 10.28 105.294 10.008 105.95 9.752C106.622 9.48 107.35 9.248 108.134 9.056C108.918 8.864 109.718 8.712 110.534 8.6C111.366 8.488 112.158 8.432 112.91 8.432C114.83 8.432 116.334 8.816 117.422 9.584C118.51 10.352 119.054 11.416 119.054 12.776ZM109.91 18.512C109.606 18.368 109.326 18.152 109.07 17.864C108.702 18.68 108.35 19.48 108.014 20.264C107.694 21.048 107.406 21.776 107.15 22.448C106.894 23.12 106.686 23.704 106.526 24.2C106.366 24.696 106.278 25.056 106.262 25.28C106.486 25.408 106.75 25.504 107.054 25.568C107.374 25.632 107.766 25.664 108.23 25.664C109.318 25.664 110.358 25.512 111.35 25.208C112.342 24.904 113.214 24.496 113.966 23.984C114.718 23.456 115.318 22.856 115.766 22.184C116.214 21.512 116.438 20.808 116.438 20.072C116.438 19.016 115.982 18.256 115.07 17.792C113.822 18.304 112.414 18.56 110.846 18.56C110.622 18.56 110.446 18.56 110.318 18.56C110.206 18.56 110.07 18.544 109.91 18.512ZM114.566 10.184C114.23 10.184 113.87 10.208 113.486 10.256C113.118 10.288 112.726 10.344 112.31 10.424C112.374 10.488 112.422 10.56 112.454 10.64C112.502 10.704 112.542 10.776 112.574 10.856C112.43 11.048 112.254 11.328 112.046 11.696C111.838 12.064 111.606 12.496 111.35 12.992C111.094 13.472 110.822 14.008 110.534 14.6C110.262 15.192 109.982 15.8 109.694 16.424C109.966 16.36 110.294 16.312 110.678 16.28C111.078 16.232 111.47 16.208 111.854 16.208C112.062 16.208 112.262 16.216 112.454 16.232C112.662 16.248 112.862 16.272 113.054 16.304C113.822 16.176 114.51 15.992 115.118 15.752C115.742 15.496 116.278 15.208 116.726 14.888C117.174 14.552 117.518 14.184 117.758 13.784C117.998 13.384 118.118 12.96 118.118 12.512C118.118 11.744 117.814 11.168 117.206 10.784C116.598 10.384 115.718 10.184 114.566 10.184ZM119.413 24.464C119.413 23.76 119.581 22.776 119.917 21.512C120.253 20.232 120.725 18.744 121.333 17.048C122.325 14.344 123.253 12.096 124.117 10.304C124.997 8.496 125.853 7.088 126.685 6.08C126.877 6.112 127.109 6.192 127.381 6.32C127.669 6.448 127.949 6.592 128.221 6.752C128.493 6.896 128.733 7.048 128.941 7.208C129.165 7.368 129.309 7.496 129.373 7.592C128.125 9.064 127.029 10.648 126.085 12.344C125.141 14.04 124.277 15.984 123.493 18.176C122.821 20.064 122.309 21.768 121.957 23.288C121.605 24.792 121.429 26.048 121.429 27.056C121.429 27.328 121.429 27.496 121.429 27.56C121.429 27.624 121.437 27.688 121.453 27.752C121.229 27.72 121.037 27.664 120.877 27.584C120.717 27.504 120.613 27.408 120.565 27.296C120.533 27.216 120.445 27.096 120.301 26.936C120.157 26.792 120.029 26.68 119.917 26.6C119.773 26.504 119.653 26.256 119.557 25.856C119.461 25.44 119.413 24.976 119.413 24.464ZM127.848 26.84C126.936 26.744 126.208 26.344 125.664 25.64C125.12 24.936 124.848 24.04 124.848 22.952C124.848 22.312 124.944 21.648 125.136 20.96C125.328 20.272 125.6 19.608 125.952 18.968C126.304 18.312 126.72 17.696 127.2 17.12C127.68 16.544 128.2 16.048 128.76 15.632C129.64 14.976 130.464 14.648 131.232 14.648C131.744 14.92 132.248 15.488 132.744 16.352C132.824 16.352 132.896 16.352 132.96 16.352C133.024 16.336 133.096 16.328 133.176 16.328C134.024 16.328 134.448 17.08 134.448 18.584C134.448 19.592 134.28 20.552 133.944 21.464C133.624 22.36 133.168 23.176 132.576 23.912C132 24.648 131.304 25.272 130.488 25.784C129.688 26.28 128.808 26.632 127.848 26.84ZM129.072 19.28C128.8 19.648 128.544 20.048 128.304 20.48C128.064 20.912 127.856 21.352 127.68 21.8C127.504 22.232 127.368 22.656 127.272 23.072C127.176 23.472 127.128 23.832 127.128 24.152C127.128 24.536 127.192 24.904 127.32 25.256C127.448 25.608 127.592 25.808 127.752 25.856C128.472 25.696 129.128 25.4 129.72 24.968C130.328 24.52 130.848 23.968 131.28 23.312C131.728 22.656 132.072 21.912 132.312 21.08C132.568 20.248 132.696 19.36 132.696 18.416C132.696 18 132.672 17.672 132.624 17.432C132.576 17.192 132.496 16.984 132.384 16.808C131.68 17.016 131.048 17.352 130.488 17.816C129.944 18.28 129.472 18.768 129.072 19.28ZM130.761 33.152C130.761 33.056 130.793 32.968 130.857 32.888C130.921 32.808 130.993 32.728 131.073 32.648C131.265 32.824 131.433 32.96 131.577 33.056C131.705 33.152 131.833 33.232 131.961 33.296C132.073 33.36 132.193 33.4 132.321 33.416C132.449 33.432 132.601 33.44 132.777 33.44C133.609 33.44 134.401 33.216 135.153 32.768C135.905 32.336 136.609 31.704 137.265 30.872C137.937 30.04 138.545 29.024 139.089 27.824C139.633 26.624 140.113 25.264 140.529 23.744C140.337 23.936 140.097 24.152 139.809 24.392C139.537 24.616 139.249 24.832 138.945 25.04C138.641 25.248 138.337 25.44 138.033 25.616C137.745 25.792 137.497 25.92 137.289 26C137.017 25.952 136.761 25.84 136.521 25.664C136.297 25.472 136.097 25.24 135.921 24.968C135.745 24.696 135.609 24.392 135.513 24.056C135.417 23.704 135.369 23.336 135.369 22.952C135.369 22.328 135.481 21.688 135.705 21.032C135.945 20.376 136.257 19.736 136.641 19.112C137.025 18.472 137.473 17.872 137.985 17.312C138.513 16.752 139.065 16.264 139.641 15.848C140.233 15.432 140.825 15.104 141.417 14.864C142.025 14.608 142.617 14.48 143.193 14.48C143.753 14.48 144.169 14.6 144.441 14.84C144.729 15.064 144.937 15.456 145.065 16.016C144.889 15.92 144.665 15.872 144.393 15.872C144.009 15.872 143.561 16.024 143.049 16.328C142.553 16.632 142.041 17.032 141.513 17.528C141.001 18.008 140.489 18.568 139.977 19.208C139.465 19.832 139.009 20.472 138.609 21.128C138.225 21.784 137.905 22.424 137.649 23.048C137.409 23.672 137.289 24.232 137.289 24.728C137.289 24.84 137.297 24.912 137.313 24.944C137.329 24.96 137.353 24.968 137.385 24.968C137.529 24.968 137.721 24.888 137.961 24.728C138.217 24.568 138.497 24.368 138.801 24.128C139.121 23.872 139.449 23.584 139.785 23.264C140.121 22.928 140.441 22.592 140.745 22.256C141.433 21.488 142.057 20.632 142.617 19.688C143.193 18.728 143.649 17.8 143.985 16.904C144.417 16.936 144.801 17.008 145.137 17.12C145.473 17.232 145.705 17.352 145.833 17.48C145.289 18.728 144.849 19.776 144.513 20.624C144.193 21.472 143.913 22.224 143.673 22.88C143.241 24.032 142.833 25.08 142.449 26.024C142.081 26.984 141.697 27.864 141.297 28.664C140.913 29.48 140.489 30.232 140.025 30.92C139.577 31.624 139.065 32.296 138.489 32.936C138.217 33.24 137.905 33.504 137.553 33.728C137.217 33.968 136.865 34.168 136.497 34.328C136.145 34.488 135.793 34.608 135.441 34.688C135.105 34.768 134.793 34.808 134.505 34.808C134.121 34.808 133.729 34.76 133.329 34.664C132.929 34.584 132.561 34.464 132.225 34.304C131.873 34.16 131.569 33.984 131.313 33.776C131.057 33.584 130.873 33.376 130.761 33.152ZM154.694 16.448C154.678 16.752 154.622 17.072 154.526 17.408C154.446 17.728 154.342 18.024 154.214 18.296C154.086 18.552 153.95 18.768 153.806 18.944C153.662 19.12 153.526 19.208 153.398 19.208C153.222 19.192 153.118 19.072 153.086 18.848C153.086 18.8 153.102 18.728 153.134 18.632C153.182 18.52 153.23 18.4 153.278 18.272C153.326 18.144 153.366 18.016 153.398 17.888C153.446 17.76 153.47 17.648 153.47 17.552C153.47 17.328 153.414 17.144 153.302 17C153.206 16.84 153.07 16.76 152.894 16.76C152.254 16.76 151.766 17.16 151.43 17.96C151.094 18.76 150.926 19.936 150.926 21.488C150.926 21.648 150.934 21.744 150.95 21.776C151.286 21.76 151.582 21.752 151.838 21.752C152.11 21.736 152.374 21.728 152.63 21.728C152.646 21.76 152.654 21.824 152.654 21.92C152.654 22.064 152.622 22.168 152.558 22.232C152.19 22.312 151.894 22.384 151.67 22.448C151.462 22.496 151.302 22.544 151.19 22.592C151.078 22.64 151.006 22.696 150.974 22.76C150.958 22.808 150.95 22.88 150.95 22.976C150.95 23.104 150.95 23.232 150.95 23.36C150.966 23.488 150.974 23.648 150.974 23.84C150.974 25.184 150.606 26.264 149.87 27.08C149.15 27.896 148.142 28.368 146.846 28.496C146.622 28.48 146.39 28.416 146.15 28.304C145.91 28.192 145.678 28.048 145.454 27.872C145.246 27.696 145.062 27.496 144.902 27.272C144.742 27.064 144.63 26.848 144.566 26.624C144.566 26.016 144.694 25.44 144.95 24.896C145.206 24.336 145.55 23.848 145.982 23.432C146.43 23 146.95 22.656 147.542 22.4C148.15 22.128 148.806 21.968 149.51 21.92C149.51 21.52 149.47 21.128 149.39 20.744C149.31 20.36 149.222 19.992 149.126 19.64C149.046 19.272 148.966 18.92 148.886 18.584C148.806 18.232 148.766 17.888 148.766 17.552C148.766 17.12 148.854 16.696 149.03 16.28C149.206 15.848 149.438 15.456 149.726 15.104C150.014 14.736 150.35 14.424 150.734 14.168C151.118 13.912 151.518 13.736 151.934 13.64C152.11 13.688 152.342 13.832 152.63 14.072C152.934 14.296 153.23 14.552 153.518 14.84C153.806 15.128 154.062 15.424 154.286 15.728C154.51 16.016 154.646 16.256 154.694 16.448ZM146.774 27.392C147.158 27.232 147.518 27 147.854 26.696C148.206 26.392 148.51 26.048 148.766 25.664C149.022 25.28 149.222 24.872 149.366 24.44C149.526 24.008 149.606 23.584 149.606 23.168C149.286 23.216 148.934 23.368 148.55 23.624C148.166 23.864 147.806 24.16 147.47 24.512C147.134 24.848 146.854 25.2 146.63 25.568C146.406 25.936 146.294 26.256 146.294 26.528C146.294 26.88 146.454 27.168 146.774 27.392Z" fill="#D1B06B"/>
<path d="M100.16 42.98C98.8667 42.98 98.2333 42.6533 98.26 42C98.26 41.3867 98.88 41.08 100.12 41.08C100.413 41.08 100.693 41.1133 100.96 41.18C101.4 40.74 101.62 40.0733 101.62 39.18C101.62 37.6333 100.587 36.86 98.52 36.86C97.44 36.86 96.4133 37.0933 95.44 37.56C95.08 37.7333 94.7533 37.8933 94.46 38.04C94.18 38.1867 93.92 38.26 93.68 38.26C93.44 38.26 93.32 38.1867 93.32 38.04C93.32 37.8667 93.4533 37.6133 93.72 37.28C93.9867 36.9333 94.36 36.5867 94.84 36.24C96.0667 35.3867 97.46 34.9533 99.02 34.94C101.06 34.94 102.56 35.3467 103.52 36.16C104.347 36.84 104.76 37.7667 104.76 38.94C104.76 40.3 104.093 41.34 102.76 42.06C104.04 42.7933 104.8 43.6933 105.04 44.76C105.12 45.1333 105.16 45.6267 105.16 46.24C105.16 46.8533 104.993 47.4333 104.66 47.98C104.327 48.5267 103.88 48.9867 103.32 49.36C102.2 50.08 100.767 50.44 99.02 50.44C97.78 50.44 96.4 50.16 94.88 49.6C93.8667 49.2267 93.12 48.78 92.64 48.26C92.4 48.0067 92.28 47.7533 92.28 47.5C92.2933 47.2467 92.42 47.12 92.66 47.12C92.9133 47.12 93.3867 47.2067 94.08 47.38V47.36C94.08 46.32 94.2 45.2533 94.44 44.16C94.8533 42.2533 95.3333 40.76 95.88 39.68C96.4667 38.48 97.0733 37.88 97.7 37.88C97.8733 37.88 97.96 38.18 97.96 38.78C97.96 39.38 97.9 39.9933 97.78 40.62C97.6733 41.2467 97.5533 41.8667 97.42 42.48C97.3 43.08 97.18 43.6267 97.06 44.12C96.9533 44.6133 96.9 44.9667 96.9 45.18L96.7 48.2C97.4867 48.4133 98.1533 48.52 98.7 48.52C99.2467 48.52 99.74 48.4267 100.18 48.24C101.287 47.7733 101.84 46.96 101.84 45.8C101.84 45.1067 101.773 44.5333 101.64 44.08C101.507 43.6267 101.267 43.2267 100.92 42.88C100.613 42.9467 100.36 42.98 100.16 42.98ZM112.14 48.54C111.473 49.46 110.58 49.92 109.46 49.92C108.553 49.92 107.827 49.7333 107.28 49.36C106.747 48.9733 106.48 48.3667 106.48 47.54C106.48 47.1933 106.527 46.8733 106.62 46.58C106.727 46.2867 106.893 45.9267 107.12 45.5L107.7 40.76C108.113 40.44 108.673 40.28 109.38 40.28C109.98 40.28 110.32 40.68 110.4 41.48C110.427 41.72 110.44 42.0067 110.44 42.34C110.44 42.66 110.387 43 110.28 43.36C109.747 45.2 109.487 46.4333 109.5 47.06C109.5 47.54 109.78 47.78 110.34 47.78C110.9 47.78 111.313 47.6 111.58 47.24C111.847 46.88 112.073 46.4333 112.26 45.9C112.607 44.42 112.927 43.2 113.22 42.24C113.527 41.28 113.72 40.7067 113.8 40.52C113.933 40.2 114.187 40.0333 114.56 40.02C114.933 40.0333 115.287 40.3 115.62 40.82C115.953 41.3267 116.12 41.72 116.12 42C116.093 42.9333 115.513 45.2867 114.38 49.06C115.247 48.38 116.107 47.5467 116.96 46.56C117.253 46.2133 117.5 45.9267 117.7 45.7C117.9 45.46 118.06 45.34 118.18 45.34C118.367 45.34 118.46 45.5533 118.46 45.98C118.46 46.82 117.987 47.8 117.04 48.92C116.107 50.04 114.96 50.9133 113.6 51.54C113.44 52.0733 113.267 52.58 113.08 53.06C112.893 53.54 112.653 53.96 112.36 54.32C111.72 55.0933 110.747 55.48 109.44 55.48C108.56 55.48 107.807 55.2267 107.18 54.72C106.567 54.2133 106.26 53.58 106.26 52.82C106.26 52.3933 106.4 52.0533 106.68 51.8C106.973 51.5467 107.367 51.3333 107.86 51.16C108.367 51 108.953 50.8533 109.62 50.72C110.287 50.6 111 50.4467 111.76 50.26C111.947 49.46 112.073 48.8867 112.14 48.54ZM109.42 53.94C110.047 53.94 110.613 53.3933 111.12 52.3C110.64 52.3933 110.213 52.46 109.84 52.5C109.467 52.5533 109.147 52.6 108.88 52.64C108.347 52.72 108.087 52.86 108.1 53.06C108.1 53.3133 108.247 53.5267 108.54 53.7C108.847 53.8733 109.14 53.9533 109.42 53.94ZM139.151 45.28C139.378 45.28 139.491 45.5867 139.491 46.2C139.491 46.5333 139.351 46.94 139.071 47.42C138.791 47.8867 138.424 48.32 137.971 48.72C137.531 49.1067 137.038 49.4267 136.491 49.68C135.944 49.9333 135.424 50.06 134.931 50.06C134.438 50.06 134.051 49.9667 133.771 49.78C133.491 49.5933 133.271 49.34 133.111 49.02C132.884 48.5667 132.698 47.7067 132.551 46.44C132.404 45.16 132.258 44.2667 132.111 43.76C131.764 43.6933 131.458 43.56 131.191 43.36C130.938 43.1467 130.811 42.8933 130.811 42.6C130.811 42.2933 130.944 42.0733 131.211 41.94C131.491 41.8067 131.804 41.74 132.151 41.74C132.511 41.74 132.831 41.8267 133.111 42C133.484 41.6933 133.784 41.3333 134.011 40.92C134.251 40.4933 134.371 39.9267 134.371 39.22C134.371 38.5 134.131 37.9267 133.651 37.5C133.171 37.0733 132.464 36.86 131.531 36.86C130.611 36.86 129.904 36.9333 129.411 37.08C128.918 37.2267 128.491 37.3867 128.131 37.56C127.784 37.7333 127.471 37.8933 127.191 38.04C126.924 38.1867 126.671 38.26 126.431 38.26C126.191 38.26 126.071 38.1867 126.071 38.04C126.071 37.88 126.198 37.6267 126.451 37.28C126.704 36.9333 127.078 36.5867 127.571 36.24C128.811 35.3733 130.211 34.9467 131.771 34.96C133.331 34.96 134.618 35.2533 135.631 35.84C136.818 36.5333 137.411 37.5733 137.411 38.96C137.424 40.1067 137.124 41.06 136.511 41.82C135.898 42.58 135.138 43.1267 134.231 43.46C134.431 43.9 134.591 44.3733 134.711 44.88C134.844 45.3867 134.971 45.8533 135.091 46.28C135.211 46.7067 135.344 47.06 135.491 47.34C135.651 47.62 135.838 47.76 136.051 47.76C136.278 47.76 136.544 47.6333 136.851 47.38C137.171 47.1133 137.484 46.8267 137.791 46.52C138.098 46.2133 138.371 45.9333 138.611 45.68C138.864 45.4133 139.044 45.28 139.151 45.28ZM130.451 38.08C130.624 38.08 130.711 38.3067 130.711 38.76C130.711 39.2133 130.684 39.64 130.631 40.04C130.511 40.8133 130.358 41.5333 130.171 42.2C129.691 44.0133 129.451 45.0733 129.451 45.38V48.32C129.451 49.04 129.178 49.5333 128.631 49.8C128.378 49.92 128.131 50.0333 127.891 50.14C127.664 50.2467 127.404 50.3 127.111 50.3C126.551 50.3 126.271 49.66 126.271 48.38C126.271 47.0867 126.571 45.46 127.171 43.5C127.771 41.54 128.398 40.0467 129.051 39.02C129.184 38.82 129.378 38.6133 129.631 38.4C129.884 38.1867 130.158 38.08 130.451 38.08ZM146.578 48.3C145.525 49.54 144.258 50.16 142.778 50.16C141.312 50.16 140.212 49.7867 139.478 49.04C138.745 48.28 138.385 47.34 138.398 46.22C138.385 44.6333 138.885 43.2667 139.898 42.12C140.912 40.9733 142.238 40.4 143.878 40.4C144.625 40.4 145.225 40.4933 145.678 40.68C146.465 41 146.858 41.3 146.858 41.58C146.858 41.7933 146.305 41.9067 145.198 41.92C144.105 41.92 143.185 42.3 142.438 43.06C141.705 43.8067 141.338 44.7533 141.338 45.9C141.338 46.5 141.512 47.0067 141.858 47.42C142.218 47.82 142.718 48.02 143.358 48.02C144.012 48.02 144.552 47.8867 144.978 47.62C144.032 46.98 143.558 46.0533 143.558 44.84C143.545 44.2 143.772 43.62 144.238 43.1C144.718 42.5667 145.325 42.3 146.058 42.3C146.805 42.2867 147.338 42.4867 147.658 42.9C147.978 43.3133 148.138 43.8467 148.138 44.5C148.138 45.14 147.985 45.82 147.678 46.54H147.798C148.385 46.5267 148.892 46.32 149.318 45.92C149.478 45.76 149.612 45.62 149.718 45.5C149.838 45.38 149.958 45.32 150.078 45.32C150.265 45.32 150.358 45.54 150.358 45.98C150.358 46.7933 150.118 47.4067 149.638 47.82C149.158 48.22 148.625 48.42 148.038 48.42C147.465 48.42 146.978 48.38 146.578 48.3ZM146.398 45.98C146.625 45.5 146.738 45.0333 146.738 44.58C146.738 44.1267 146.592 43.9 146.298 43.9C146.178 43.9 146.078 43.9867 145.998 44.16C145.918 44.3333 145.878 44.5 145.878 44.66C145.878 45.1933 146.052 45.6333 146.398 45.98ZM156.018 43.28C156.018 42.8 155.731 42.56 155.158 42.56C154.598 42.56 154.044 43 153.498 43.88C152.951 44.7467 152.611 45.6333 152.478 46.54C152.504 46.8467 152.531 47.1533 152.558 47.46C152.584 47.7667 152.598 48.0667 152.598 48.36C152.598 49.0667 152.364 49.5467 151.898 49.8C151.684 49.92 151.478 50.0333 151.278 50.14C151.091 50.2467 150.871 50.3 150.618 50.3C150.364 50.3 150.138 50.1333 149.938 49.8C149.751 49.4533 149.658 48.92 149.658 48.2C149.658 46.1867 149.804 44.44 150.098 42.96C150.551 40.6667 151.451 38.2133 152.798 35.6C152.984 35.24 153.258 35.0667 153.618 35.08C153.978 35.08 154.271 35.3267 154.498 35.82C154.724 36.3133 154.831 36.7267 154.818 37.06C154.818 37.3933 154.764 37.72 154.658 38.04C154.564 38.3467 154.438 38.6533 154.278 38.96C154.131 39.2533 153.958 39.56 153.758 39.88C153.571 40.1867 153.384 40.52 153.198 40.88L152.898 42.32C153.418 41.4533 154.118 40.8733 154.998 40.58C155.318 40.4733 155.671 40.42 156.058 40.42C156.964 40.42 157.651 40.6267 158.118 41.04C158.584 41.44 158.818 42.0133 158.818 42.76C158.818 43.4933 158.718 44.24 158.518 45C158.331 45.76 158.191 46.3067 158.098 46.64C158.018 46.96 157.978 47.2267 157.978 47.44C157.978 47.6533 158.051 47.76 158.198 47.76C158.398 47.76 158.644 47.6333 158.938 47.38C159.231 47.1267 159.524 46.8533 159.818 46.56C160.111 46.2533 160.378 45.9733 160.618 45.72C160.871 45.4667 161.044 45.34 161.138 45.34C161.324 45.34 161.418 45.5667 161.418 46.02C161.418 46.9533 160.958 47.8533 160.038 48.72C158.491 49.6267 157.504 50.08 157.078 50.08C157.038 50.08 157.011 50.0733 156.998 50.06C155.931 50.06 155.398 49.2067 155.398 47.5C155.398 46.7667 155.464 46.0933 155.598 45.48C155.744 44.8667 155.851 44.42 155.918 44.14C155.984 43.86 156.018 43.5733 156.018 43.28ZM172.693 45.28C172.933 45.28 173.053 45.5867 173.053 46.2C173.053 46.5333 172.913 46.94 172.633 47.42C172.353 47.8867 171.986 48.32 171.533 48.72C171.093 49.1067 170.599 49.4267 170.053 49.68C169.506 49.9333 168.973 50.06 168.453 50.06C167.746 50.06 167.273 49.44 167.033 48.2C166.686 48.7733 166.233 49.2467 165.673 49.62C165.113 49.98 164.359 50.16 163.413 50.16C162.479 50.16 161.726 49.8667 161.153 49.28C160.579 48.6933 160.299 47.98 160.313 47.14C160.313 44.8733 161.066 43.0867 162.573 41.78C163.213 41.2333 163.806 40.8733 164.353 40.7C164.913 40.5267 165.499 40.44 166.113 40.44C166.726 40.44 167.226 40.5467 167.613 40.76C167.799 40.3733 168.013 40.18 168.253 40.18C168.719 40.18 169.159 40.3867 169.573 40.8C169.999 41.2 170.213 41.58 170.213 41.94C170.026 42.38 169.753 42.9067 169.393 43.52C169.286 44.1333 169.233 44.9933 169.233 46.1C169.233 47.2067 169.373 47.76 169.653 47.76C169.999 47.76 170.839 47.0667 172.173 45.68C172.413 45.4133 172.586 45.28 172.693 45.28ZM163.253 46.48C163.253 47.5067 163.633 48.02 164.393 48.02C165.206 48.0067 165.879 47.5733 166.413 46.72C166.599 46.4267 166.753 46.0667 166.873 45.64C166.873 44.1467 167.006 42.8667 167.273 41.8C166.193 42.0133 165.253 42.5333 164.453 43.36C163.653 44.1867 163.253 45.2267 163.253 46.48ZM174.713 40.02C175.193 40.02 175.646 40.48 176.073 41.4C176.7 40.7467 177.473 40.42 178.393 40.42C179.326 40.42 180.026 40.6267 180.493 41.04C180.96 41.44 181.193 42.0133 181.193 42.76C181.193 43.4933 181.093 44.24 180.893 45C180.706 45.76 180.566 46.3067 180.473 46.64C180.393 46.96 180.353 47.2267 180.353 47.44C180.353 47.6533 180.426 47.76 180.573 47.76C180.773 47.76 181.02 47.6333 181.313 47.38C181.606 47.1267 181.9 46.8533 182.193 46.56C182.486 46.2533 182.753 45.9733 182.993 45.72C183.246 45.4667 183.42 45.34 183.513 45.34C183.7 45.34 183.793 45.5667 183.793 46.02C183.793 46.9533 183.333 47.8533 182.413 48.72C180.866 49.6267 179.88 50.08 179.453 50.08C179.413 50.08 179.386 50.0733 179.373 50.06C178.306 50.06 177.773 49.2067 177.773 47.5C177.773 46.7667 177.84 46.0933 177.973 45.48C178.12 44.8667 178.226 44.42 178.293 44.14C178.36 43.86 178.393 43.5733 178.393 43.28C178.393 42.8 178.113 42.56 177.553 42.56C177.006 42.56 176.48 42.9733 175.973 43.8C175.48 44.6133 175.146 45.46 174.973 46.34V46.48C174.973 46.9333 175.04 47.4 175.173 47.88C175.32 48.36 175.393 48.6933 175.393 48.88C175.393 49.3333 174.826 49.78 173.693 50.22C173.52 50.2867 173.366 50.32 173.233 50.32C172.9 50.32 172.666 50.1467 172.533 49.8C172.413 49.4533 172.353 48.9133 172.353 48.18C172.353 46.2867 172.426 44.92 172.573 44.08C172.773 42.8267 173.226 41.66 173.933 40.58C174.173 40.2067 174.433 40.02 174.713 40.02Z" fill="white"/>
</svg>
